<svg xmlns="http://www.w3.org/2000/svg" width="79" height="79" viewBox="0 0 79 79" fill="none">
  <g clip-path="url(#clip0_1_19512)">
    <path d="M31.2934 45.6148C31.3026 48.7488 31.2501 51.8858 31.3366 55.0197C31.4356 58.5616 32.3041 61.9489 33.7662 65.1724C34.304 66.3623 34.9593 67.5028 35.593 68.6463C35.7815 68.9863 35.7537 69.1068 35.3642 69.1068C35.185 69.1068 35.0057 69.1068 34.8233 69.1068C26.187 69.1068 17.5507 69.1068 8.91447 69.1068C4.62415 69.1068 0.788209 65.7689 0.132916 61.5224C0.0432763 60.9321 0.00618421 60.3541 0.00618421 59.7669C0.00309321 42.8549 0.00927522 25.9429 2.19763e-06 9.03396C-0.00308881 4.74723 3.25483 0.738664 7.61625 0.126716C8.17881 0.0463597 8.73519 0.00309065 9.29467 0.00309065C21.9431 0 34.5884 0 47.2337 0C51.4746 0 55.4805 3.68405 55.8545 7.90896C56.1884 11.6765 55.9256 15.4532 55.9998 19.2238C56.0338 20.9206 55.9967 22.6173 56.0122 24.311C56.0153 24.7066 55.9565 24.991 55.5176 25.1362C52.2813 26.2087 49.0512 27.2966 45.818 28.3814C45.2462 27.0741 44.254 26.3663 42.8197 26.3663C32.8976 26.3601 22.9755 26.3632 13.0533 26.3632C11.7984 26.3632 10.8927 26.9968 10.2992 28.0414C9.06902 30.208 10.6238 32.8628 13.1337 32.869C19.9463 32.8845 26.7589 32.8752 33.5714 32.8783C33.9053 32.8783 34.236 32.9123 34.5698 32.9277C34.2824 33.5737 33.6704 33.9477 33.2716 34.5102C32.1001 36.1544 31.4294 37.9562 31.3181 39.9682C30.8483 39.6839 30.3506 39.4923 29.7942 39.4923C24.1902 39.4923 18.5862 39.4768 12.9822 39.4985C11.3687 39.5046 9.94996 40.9665 9.88505 42.5706C9.80777 44.5887 11.3038 46.097 13.415 46.1001C18.6079 46.1063 23.8008 46.097 28.9937 46.1093C29.8035 46.1155 30.5732 45.995 31.2934 45.6148ZM19.8134 19.7461C21.9462 19.7461 24.0821 19.7523 26.2148 19.743C28.1436 19.7369 29.5964 18.3492 29.6242 16.5071C29.652 14.6528 28.1776 13.1476 26.2458 13.1383C21.9276 13.1167 17.6064 13.1198 13.2882 13.1383C11.3378 13.1445 9.86341 14.6188 9.87887 16.4762C9.89432 18.3523 11.3564 19.74 13.3346 19.7461C15.4921 19.7492 17.6528 19.7461 19.8134 19.7461Z" fill="#F5F5F5"/>
    <path d="M78.9938 48.2266C78.9103 50.4024 79.1236 53.0758 78.8794 55.743C78.459 60.3079 76.6632 64.3134 73.8565 67.8769C70.1071 72.6334 65.3253 76.0733 59.8852 78.6447C59.0104 79.0589 58.0893 79.1454 57.1991 78.7282C50.5565 75.6097 44.8721 71.3446 41.0115 64.9655C38.8756 61.436 37.8432 57.582 37.8432 53.456C37.8432 49.2681 37.8401 45.0803 37.8432 40.8894C37.8432 38.865 38.6066 37.8173 40.5262 37.1652C46.0158 35.3015 51.5054 33.444 56.9889 31.5649C57.9564 31.2342 58.8775 31.2219 59.845 31.5556C65.3531 33.4409 70.8706 35.3046 76.3788 37.1837C78.2519 37.8235 78.9907 38.8805 78.9907 40.8739C78.9938 43.161 78.9938 45.445 78.9938 48.2266ZM51.0696 51.0236C49.6477 51.0391 48.5968 51.6819 48.0188 52.9769C47.4377 54.2781 47.6478 55.5298 48.6339 56.5435C50.8378 58.809 53.0726 61.0466 55.3352 63.2502C56.7571 64.6348 58.9579 64.4958 60.1633 62.9133C63.5233 58.4999 66.8461 54.0556 70.1566 49.6019C71.0035 48.4646 70.9602 46.9811 70.1751 45.8468C68.8522 43.9399 66.2032 43.946 64.7411 45.8808C62.3889 48.9962 60.0428 52.1177 57.7276 55.2609C57.3227 55.811 57.1125 55.7956 56.6674 55.3227C55.6134 54.1977 54.4975 53.1315 53.4064 52.0405C52.7604 51.3976 52 51.0205 51.0696 51.0236Z" fill="#B847EF"/>
    <path d="M34.5666 32.928C34.2328 32.9094 33.9021 32.8785 33.5682 32.8785C26.7556 32.8754 19.9431 32.8847 13.1305 32.8693C10.6206 32.8631 9.0658 30.2082 10.296 28.0417C10.8895 26.997 11.7952 26.3634 13.0501 26.3634C22.9722 26.3604 32.8944 26.3573 42.8165 26.3665C44.2508 26.3665 45.243 27.0774 45.8148 28.3816C43.3265 29.2439 40.8414 30.1093 38.35 30.9623C37.2033 31.3548 36.1152 31.8555 35.1725 32.6282C34.9901 32.7796 34.7954 32.8878 34.5666 32.928Z" fill="#90A4AD"/>
    <path d="M31.2936 45.6151C30.5703 45.9952 29.8037 46.1126 28.9877 46.1126C23.7948 46.0972 18.6019 46.1096 13.409 46.1034C11.2947 46.1003 9.7987 44.5921 9.87907 42.5739C9.94089 40.9698 11.3628 39.5079 12.9763 39.5018C18.5803 39.4801 24.1843 39.4925 29.7883 39.4956C30.3446 39.4956 30.8423 39.6872 31.3121 39.9715C31.3059 41.8537 31.2998 43.7359 31.2936 45.6151Z" fill="#90A4AE"/>
    <path d="M19.8135 19.7461C17.6529 19.7461 15.4954 19.7522 13.3348 19.7461C11.3565 19.7399 9.89448 18.3522 9.87903 16.4762C9.86357 14.6187 11.338 13.1444 13.2884 13.1383C17.6065 13.1228 21.9278 13.1197 26.2459 13.1383C28.1778 13.1475 29.6553 14.6527 29.6244 16.5071C29.5966 18.3491 28.1407 19.7368 26.215 19.743C24.0791 19.7522 21.9463 19.7461 19.8135 19.7461Z" fill="#90A4AE"/>
  </g>
  <defs>
    <clipPath id="clip0_1_19512">
      <rect width="79" height="79" fill="white"/>
    </clipPath>
  </defs>
</svg>